<svg xmlns="http://www.w3.org/2000/svg" viewBox="0 0 29.116 70.483">
  <defs>
    <style>
      .cls-1 {
        fill: #fff952;
      }
    </style>
  </defs>
  <path id="Path_77" data-name="Path 77" class="cls-1" d="M13.712,70.393c-2.273,0-4.545-.016-6.833,0-3.766.048-5.832-2.4-6.5-5.642a14.119,14.119,0,0,1-.286-2.829C.061,52.673.061,43.44.045,34.191a24.878,24.878,0,0,1,.064-3.925,10.156,10.156,0,0,1,1.176-2.447,1.787,1.787,0,0,0,.127-.715c.032-1-.016-1.986.079-2.988a1.486,1.486,0,0,1,.524-1.033c.874-.54.906-1.367,1-2.209a10.55,10.55,0,0,1,3.337-6.357,9.489,9.489,0,0,0,3.21-8.3,7.533,7.533,0,0,1,.81-4.084,3.739,3.739,0,0,1,2.8-2.1,3.033,3.033,0,0,1,3.305,1.51,9.537,9.537,0,0,1,1.16,4.561c.064.89.048,1.8.079,2.7a5.607,5.607,0,0,0,1.78,3.862,14.883,14.883,0,0,1,3.4,4.752,8.446,8.446,0,0,1,.493,1.335A4.83,4.83,0,0,0,24.931,21.6c1.16,1.017.985,2.622.763,4.037a1.405,1.405,0,0,0,.286,1.208,8.438,8.438,0,0,1,1.51,3.8.728.728,0,0,1,.016.318c-.461,1.494.207,2.892.318,4.338.35,4.609.763,9.233.985,13.842.207,4.354.207,8.725.3,13.095.079,4.18-2.161,7.215-6.1,7.994a21.878,21.878,0,0,1-3.957.207c-1.78.032-3.544,0-5.324,0C13.712,70.456,13.712,70.424,13.712,70.393ZM1.968,60.842a5.261,5.261,0,0,0,3.417.111A12.725,12.725,0,0,1,6.942,60.7a.7.7,0,0,1,.874.683c.048.54-.222.81-.763.89-1.669.254-3.305.985-5.149.222A8.289,8.289,0,0,0,3.287,66.96a3.759,3.759,0,0,0,2.606,1.51,13.7,13.7,0,0,0,1.971.143c4.529,0,9.058,0,13.587-.032a5.581,5.581,0,0,0,5.785-5.912c0-2.829-.064-5.673-.079-8.5-.016-1.255,0-2.511,0-3.814-9.71,2.3-20.341,2.129-25.173,2.161a.12.12,0,0,0-.032.064,4.3,4.3,0,0,0,.079,1.7c.127.286.89.222,1.271.461a1.289,1.289,0,0,1,.62.922c0,.493-.445.731-.985.652-.318-.048-.652-.111-.969-.159v1.255c.445.032.842.064,1.24.079.572.032.922.334.89.906-.048.636-.509.795-1.081.747-.334-.032-.652-.064-1.033-.1C1.968,59.729,1.968,60.27,1.968,60.842ZM1.9,48.51a11.715,11.715,0,0,1-.016,1.51c-.079.667.254.826.826.842,1.335.016,2.686.127,4.021.048,4.752-.3,9.487-.62,14.223-1.049A52.3,52.3,0,0,0,26.314,48.8c.477-.1.683-.318.636-.89-.27-3.528-.445-7.072-.731-10.6-.1-1.271-.366-2.543-.572-3.862C17.764,35.621,9.866,35.51,1.9,35.049v4.323c1.144.159,2.273.366,3.4.461.588.048,1.192-.016,1.208.763.032.826-.588.89-1.224.842-1.112-.079-2.241-.175-3.369-.27-.191,1.605-.191,1.605,1.367,1.986.032,0,.048.016.079.016a.753.753,0,0,1,.7.89.778.778,0,0,1-.969.7c-.381-.048-.763-.111-1.24-.175v.842c0,1.351,0,1.367,1.335,1.605a.811.811,0,0,1,.779.985c-.064.588-.493.7-.985.667A9.906,9.906,0,0,1,1.9,48.51Zm10.012-25.4c1.43-.1,2.654-.127,3.862-.238A19.116,19.116,0,0,0,21.5,21.7c.54-.238.763-.524.62-1.081a23.283,23.283,0,0,0-.636-2.288,13.228,13.228,0,0,0-3.242-4.561,6.6,6.6,0,0,1-1.923-3.321,20.119,20.119,0,0,1-.238-2.59c-.111-1.732-.048-3.512-.842-5.117a1.656,1.656,0,0,0-2.686-.667,2.706,2.706,0,0,0-.747.985,8.55,8.55,0,0,0-.62,4.275,8.865,8.865,0,0,1-2.606,7.215,25.844,25.844,0,0,0-2.384,2.861,8.286,8.286,0,0,0-1.637,4.481c-.032.318-.1.636.413.683C7.339,22.733,9.739,22.94,11.916,23.115Zm-10.3,9.424c.334.064.588.127.858.175a55.8,55.8,0,0,0,12.507.477,39.569,39.569,0,0,0,9.313-1.8c1.621-.54,1.669-.683.985-2.273-.652-1.51-.652-1.526-2.177-1.033A36.937,36.937,0,0,1,9.183,29.805c-2.05-.143-4.068-.6-6.1-.858a1.037,1.037,0,0,0-.842.477A5.01,5.01,0,0,0,1.618,32.538ZM23.565,22.59c-.985.381-1.859.81-2.8,1.081a34.084,34.084,0,0,1-10.759.954c-2.05-.079-4.1-.3-6.166-.445a.951.951,0,0,0-.652.127c-.763.763-.334,2.845.7,3.178a14.2,14.2,0,0,0,2.177.4,36.334,36.334,0,0,0,16.512-1.335A2.373,2.373,0,0,0,23.565,22.59Z" transform="translate(0.003 0.028)"/>
</svg>
