<svg xmlns="http://www.w3.org/2000/svg" viewBox="0 0 72.481 72.708">
  <defs>
    <style>
      .cls-1 {
        fill: #fff952;
      }
    </style>
  </defs>
  <path id="Path_97" data-name="Path 97" class="cls-1" d="M47.87,32.092c1.605-.176,3.079-.418,4.575-.484a17.517,17.517,0,0,1,3.387.2c3.3.506,4.86,2.265,4.838,5.564,0,1.122.286,1.518,1.452,1.54,2.023.022,2.925,1.3,2.6,3.277a50.856,50.856,0,0,1-6,17.55c-4.377,7.456-10.864,11.546-19.42,12.536a34.8,34.8,0,0,1-21.751-4,19.047,19.047,0,0,1-5.41-4.6A72.36,72.36,0,0,1,.739,44.716a12.189,12.189,0,0,1-.748-4.267c-.044-1.474.484-1.891,1.913-2.155.726-.132,1.43-.242,2.2-.374.066-.682.11-1.32.2-1.957a3.581,3.581,0,0,1,2.991-3.255,22.636,22.636,0,0,1,4.575-.22,2.115,2.115,0,0,0,1.979-.858,21.956,21.956,0,0,1,2.375-2.573,7.964,7.964,0,0,1,10.007-1.078,1.618,1.618,0,0,0,1.979-.044A17.791,17.791,0,0,1,35.752,25.1a11.473,11.473,0,0,1,6.664,1.32c1.276-2.375,2.419-4.728,3.739-6.994A50.448,50.448,0,0,1,60.076,3.479,40.78,40.78,0,0,1,65.156.444,4.994,4.994,0,0,1,72.04,6.932a8.923,8.923,0,0,1-3.189,3.959c-3.343,2.485-6.774,4.882-10.007,7.522A41.685,41.685,0,0,0,48.4,31.036ZM12.681,40.405v-.484c-2.793,0-5.564.022-8.357,0-1.54-.022-1.759.2-1.254,1.605A61.541,61.541,0,0,0,15.87,62.97,18.257,18.257,0,0,0,19.5,65.961a27.542,27.542,0,0,0,19.816,3.783,21.985,21.985,0,0,0,12.91-6.488C57.81,57.34,60.34,49.994,62.209,42.3a1.068,1.068,0,0,0-.968-1.43,7.685,7.685,0,0,0-1.43-.088c-8.269-.132-16.561-.308-24.83-.374C27.548,40.361,20.115,40.405,12.681,40.405ZM57.107,38.47c.264-3.079-.814-4.575-3.695-4.706a40.784,40.784,0,0,0-6.532.462c-.858.11-1.21-.044-1.518-.9a8.343,8.343,0,0,0-8.841-5.586,15.317,15.317,0,0,0-7.456,2.991,1.769,1.769,0,0,1-2.419.022,6.921,6.921,0,0,0-5.256-1.43c-2.243.33-3.717,1.781-5.036,3.431a1.922,1.922,0,0,1-1.781.792,22.147,22.147,0,0,0-4.355.176c-2.133.374-2.947,1.627-2.727,3.981A455.772,455.772,0,0,1,57.107,38.47ZM46,30.047c.264-.506.44-.814.594-1.144A38.013,38.013,0,0,1,56.953,15.685c3.145-2.507,6.576-4.641,9.853-6.972a10.633,10.633,0,0,0,2.023-1.825,2.337,2.337,0,0,0,.154-3.123,2.651,2.651,0,0,0-3.211-.572A19.529,19.529,0,0,0,63.441,4.4c-9,5.454-14.6,13.68-18.76,23.049a1.375,1.375,0,0,0,.11,1.012A14.547,14.547,0,0,0,46,30.047Z" transform="translate(0.011 0.135)"/>
</svg>
