<svg xmlns="http://www.w3.org/2000/svg" viewBox="0 0 66.517 71.775">
  <defs>
    <style>
      .cls-1 {
        fill: #fff952;
      }
    </style>
  </defs>
  <g id="Group_40" data-name="Group 40" transform="translate(-0.073)">
    <path id="Path_74" data-name="Path 74" class="cls-1" d="M12.107,171.495c-.724-.832-1.357-1.52-1.917-2.243a28.759,28.759,0,0,1-5.535-13.187c-.47-2.75-.669-5.553-.941-8.339a7.828,7.828,0,0,1,.163-2.243,3.239,3.239,0,0,1,3.148-2.75,57.42,57.42,0,0,1,5.843-.507c6.241-.163,12.464-.38,18.7-.344,6.331.036,12.645.326,18.958.507.687.018,1.375.09,2.08.109,2.713.109,4.161,1.465,4.414,4.215.036.326.036.651.072,1.031a1.451,1.451,0,0,0,.4,0c4.251-1.284,7.851.868,8.773,5.264A11.938,11.938,0,0,1,62.161,165.2a22.852,22.852,0,0,1-13.495,5.463,2.846,2.846,0,0,0-2.08,1.321c1.646.271,3.2.4,4.7.8,2.315.615,4.613,1.321,6.874,2.135a2.947,2.947,0,0,1,2.261,2.659c0,1.429-1.049,2.243-2.189,2.858a18.156,18.156,0,0,1-6.946,1.827,3.017,3.017,0,0,0-2.514,1.393c-1.755,2.822-4.5,3.907-7.67,4.034-3.763.145-7.525.217-11.27.253-2.912.036-5.843.127-8.755-.09a28.572,28.572,0,0,1-5.879-1.23,6.661,6.661,0,0,1-3.726-3.13,1.905,1.905,0,0,0-1.158-.615c-2.08-.47-4.2-.778-6.241-1.339a8.3,8.3,0,0,1-2.75-1.483,2.855,2.855,0,0,1-.488-4.305,9.306,9.306,0,0,1,2.677-2.062,23.1,23.1,0,0,1,7.543-2.026C11.347,171.621,11.637,171.567,12.107,171.495Zm-.09-27.261v.072H9.394c-2.786.018-4.179,1.429-3.871,4.2a76.25,76.25,0,0,0,1.465,9.533c2.569,10.637,9.407,17.583,20.749,18.542,7.851.669,14.562-1.827,19.555-8.158,4.251-5.391,6.368-11.686,7.58-18.343a13.105,13.105,0,0,0-.018-3.944,1.924,1.924,0,0,0-1.99-1.845c-6.024-.109-12.048-.289-18.072-.308C27.194,144.017,19.6,144.161,12.017,144.234Zm22.268,37.644c2.949-.163,7.127-.217,11.288-.687,3.328-.38,6.6-1.23,9.9-1.936a5.655,5.655,0,0,0,1.845-.9c.814-.561.742-1.248-.109-1.773a3.206,3.206,0,0,0-.561-.271,43.812,43.812,0,0,0-11.686-2.533,1.341,1.341,0,0,0-.832.217,23.567,23.567,0,0,1-16.281,4.36,25.1,25.1,0,0,1-12.862-4.54,2.5,2.5,0,0,0-2.1-.507c-2.551.579-5.1,1.158-7.616,1.827a6.223,6.223,0,0,0-2.116,1.158,1.342,1.342,0,0,0-.145,2.3,6.422,6.422,0,0,0,2.3,1.538,22.159,22.159,0,0,0,5.264,1.085C18.059,181.5,25.548,181.643,34.285,181.878Zm15.141-13.043c1.122-.217,2.116-.362,3.075-.633a18.093,18.093,0,0,0,10.727-7.326c2.1-3.166,1.936-7.489-.289-10.058a3.843,3.843,0,0,0-3.8-1.61,3.67,3.67,0,0,0-2.153,1.23,7.724,7.724,0,0,0-.579,2.713c.633,0,1.176-.018,1.719,0a3.329,3.329,0,0,1,3.274,3.111,4.88,4.88,0,0,1-.886,3.419,11.531,11.531,0,0,1-7.923,4.884,1.375,1.375,0,0,0-.832.38C50.982,166.176,50.276,167.424,49.426,168.835Zm-2.478,13.983c-11.234,1.23-22.25.6-33.3.561a7.929,7.929,0,0,0,1.737,1.3,13.242,13.242,0,0,0,5.915,1.411c3.509.109,7.037.109,10.564.054,2.912-.054,5.843-.181,8.737-.4A9.4,9.4,0,0,0,46.948,182.819Zm6.06-20.134c2.569-.9,4.884-1.972,6.223-4.4a3.671,3.671,0,0,0,.362-1.719,1.654,1.654,0,0,0-1.429-1.61c-.9-.145-2.352.326-2.569.9C54.744,158.054,53.912,160.279,53.008,162.685Z" transform="translate(0 -116.213)"/>
    <path id="Path_75" data-name="Path 75" class="cls-1" d="M168.94,0c.615.109,1.3-.018,1.465.8.127.705-.362.995-.923,1.248-1.972.959-2.569,2.243-1.682,4.269a44.842,44.842,0,0,0,2.587,4.522c.416.705.886,1.357,1.339,2.044a5.518,5.518,0,0,1,.235,5.9,11.779,11.779,0,0,1-3.726,4.215,1.191,1.191,0,0,1-1.1.036,1.188,1.188,0,0,1-.308-1.049c1.067-2.713.362-5.065-1.375-7.236-1.049-1.321-2.135-2.6-3.148-3.962a7.078,7.078,0,0,1-1.393-4.83A5.826,5.826,0,0,1,165.395.669C166.553.362,167.765.217,168.94,0Zm.326,19.3a4.34,4.34,0,0,0,.941-4.342,21.528,21.528,0,0,0-2.189-4.2c-.886-1.393-2.008-2.7-2.243-4.378a27.1,27.1,0,0,1-.036-3.636,3.994,3.994,0,0,0-2.442,5.5,11.353,11.353,0,0,0,2.171,3.274C167.566,13.73,169.248,16.082,169.266,19.3Z" transform="translate(-131.725)"/>
    <path id="Path_76" data-name="Path 76" class="cls-1" d="M107.894,23c.289.2.868.38,1.049.742.308.633-.181,1.013-.76,1.3-1.483.742-1.918,1.719-1.321,3.256a23.116,23.116,0,0,0,1.61,3.021c.579.977,1.23,1.936,1.845,2.894a4.051,4.051,0,0,1,.362,3.636,9.177,9.177,0,0,1-3.636,4.577,1,1,0,0,1-.959-.054,1.124,1.124,0,0,1-.344-.959c1.013-2.6.036-4.667-1.592-6.639A22.662,22.662,0,0,1,101.58,31.3a5.071,5.071,0,0,1,3.13-7.67A30.908,30.908,0,0,1,107.894,23Zm.163,15.593a3.331,3.331,0,0,0,.452-3.2,13.656,13.656,0,0,0-1.592-3c-1.393-1.972-2.7-3.944-2.044-6.567a2.82,2.82,0,0,0-1.917,3.383,9.62,9.62,0,0,0,1.755,3.184C106.32,34.2,107.93,35.97,108.056,38.593Z" transform="translate(-82.509 -18.839)"/>
  </g>
</svg>
