<svg xmlns="http://www.w3.org/2000/svg" viewBox="0 0 70.556 70.755">
  <defs>
    <style>
      .cls-1 {
        fill: #fff952;
      }
    </style>
  </defs>
  <g id="Group_41" data-name="Group 41" transform="translate(0 -0.045)">
    <path id="Path_78" data-name="Path 78" class="cls-1" d="M35.236,70.8a18.475,18.475,0,0,1-3.913-1.037A25.373,25.373,0,0,0,21.4,67.105a9.081,9.081,0,0,1-7.153-4.441A20.69,20.69,0,0,0,8.008,56.4a9.657,9.657,0,0,1-4.623-8.117,19.03,19.03,0,0,0-2.148-8.1,10.066,10.066,0,0,1,.036-9.737A18.877,18.877,0,0,0,3.4,22.442a9.95,9.95,0,0,1,4.951-8.409,17.065,17.065,0,0,0,5.5-5.442,10.268,10.268,0,0,1,8.936-5.169,17.161,17.161,0,0,0,7.48-2.038A10.053,10.053,0,0,1,40.1,1.274a20.774,20.774,0,0,0,8.536,2.22,9.349,9.349,0,0,1,7.59,4.368A22.111,22.111,0,0,0,62.7,14.379a9.578,9.578,0,0,1,4.477,8.1,17.664,17.664,0,0,0,2.02,7.753,10.342,10.342,0,0,1,0,10.247,17.981,17.981,0,0,0-2.02,7.753,9.691,9.691,0,0,1-4.568,8.154,20.837,20.837,0,0,0-6.261,6.225,9.653,9.653,0,0,1-8.026,4.623,19.625,19.625,0,0,0-8.354,2.22A11.458,11.458,0,0,1,35.236,70.8ZM67.341,35.309A26.26,26.26,0,0,0,66.195,32a21.605,21.605,0,0,1-2.4-9.064,6.937,6.937,0,0,0-3.44-6.024,21.261,21.261,0,0,1-6.789-6.862,6.508,6.508,0,0,0-5.515-3.185A20.791,20.791,0,0,1,38.894,4.5a7.114,7.114,0,0,0-7.262-.018,20.033,20.033,0,0,1-8.973,2.366A6.892,6.892,0,0,0,16.744,10.3a20.963,20.963,0,0,1-6.716,6.661,6.68,6.68,0,0,0-3.294,5.715,21.145,21.145,0,0,1-2.4,9.155A6.944,6.944,0,0,0,4.3,38.84a20.531,20.531,0,0,1,2.421,9.137,6.7,6.7,0,0,0,3.258,5.751,22.078,22.078,0,0,1,6.989,7.044,6.458,6.458,0,0,0,5.46,3.112A21.479,21.479,0,0,1,31.741,66.3a6.983,6.983,0,0,0,7.1-.055A19.7,19.7,0,0,1,47.721,63.9a6.788,6.788,0,0,0,5.9-3.312,21.81,21.81,0,0,1,6.971-6.916,6.359,6.359,0,0,0,3.13-5.351A23.846,23.846,0,0,1,66.3,38.476,20.2,20.2,0,0,0,67.341,35.309Z" transform="translate(0)"/>
    <path id="Path_79" data-name="Path 79" class="cls-1" d="M205.1,182.7a3.731,3.731,0,0,1,3.84,3.749,3.822,3.822,0,1,1-3.84-3.749Z" transform="translate(-164.663 -149.411)"/>
    <path id="Path_80" data-name="Path 80" class="cls-1" d="M111.739,113.259a3.512,3.512,0,0,1-3.64-3.567A3.613,3.613,0,0,1,111.667,106a3.651,3.651,0,0,1,3.676,3.6A3.589,3.589,0,0,1,111.739,113.259Z" transform="translate(-88.425 -86.668)"/>
    <path id="Path_81" data-name="Path 81" class="cls-1" d="M189.185,116.307a3.558,3.558,0,0,1-3.585-3.585,3.595,3.595,0,1,1,7.189.036A3.531,3.531,0,0,1,189.185,116.307Z" transform="translate(-151.82 -89.206)"/>
    <path id="Path_82" data-name="Path 82" class="cls-1" d="M118.3,250.466a2.8,2.8,0,0,1,5.606.018,2.8,2.8,0,1,1-5.606-.018Z" transform="translate(-96.769 -202.58)"/>
    <path id="Path_83" data-name="Path 83" class="cls-1" d="M195.8,260.466a2.748,2.748,0,1,1-2.748-2.766A2.7,2.7,0,0,1,195.8,260.466Z" transform="translate(-155.665 -210.761)"/>
    <path id="Path_84" data-name="Path 84" class="cls-1" d="M74.816,167.539a2.719,2.719,0,0,1-2.785,2.639,2.771,2.771,0,0,1-2.639-2.8,2.672,2.672,0,0,1,2.894-2.584A2.6,2.6,0,0,1,74.816,167.539Z" transform="translate(-56.761 -134.76)"/>
    <path id="Path_85" data-name="Path 85" class="cls-1" d="M290.332,246.574a2.433,2.433,0,0,1-2.439,2.512,2.494,2.494,0,1,1,.036-4.987A2.476,2.476,0,0,1,290.332,246.574Z" transform="translate(-233.456 -199.635)"/>
    <path id="Path_86" data-name="Path 86" class="cls-1" d="M310.337,164.5a2.262,2.262,0,0,1,2.33,2.257,2.288,2.288,0,0,1-2.275,2.33,2.294,2.294,0,0,1-.055-4.587Z" transform="translate(-252.023 -134.523)"/>
    <path id="Path_87" data-name="Path 87" class="cls-1" d="M257.9,143.9a2.166,2.166,0,0,1-.018,4.332,2.167,2.167,0,0,1-2.184-2.184A2.141,2.141,0,0,1,257.9,143.9Z" transform="translate(-209.16 -117.672)"/>
    <path id="Path_88" data-name="Path 88" class="cls-1" d="M183.613,50.6a1.965,1.965,0,0,1-1.966,1.947,1.993,1.993,0,0,1-1.947-1.984,1.942,1.942,0,0,1,2.038-1.966A1.9,1.9,0,0,1,183.613,50.6Z" transform="translate(-146.994 -39.713)"/>
    <path id="Path_89" data-name="Path 89" class="cls-1" d="M138.058,305.675a1.822,1.822,0,0,1-1.838,1.838,1.857,1.857,0,0,1,.036-3.713A1.87,1.87,0,0,1,138.058,305.675Z" transform="translate(-109.939 -248.47)"/>
    <path id="Path_90" data-name="Path 90" class="cls-1" d="M59.3,255.547a1.677,1.677,0,0,1,1.765-1.747,1.77,1.77,0,0,1,1.838,1.8,1.868,1.868,0,0,1-1.8,1.8A1.8,1.8,0,0,1,59.3,255.547Z" transform="translate(-48.507 -207.57)"/>
    <path id="Path_91" data-name="Path 91" class="cls-1" d="M262.42,73.5a1.756,1.756,0,0,1,0,3.513,1.776,1.776,0,0,1-1.82-1.747A1.8,1.8,0,0,1,262.42,73.5Z" transform="translate(-213.17 -60.086)"/>
    <path id="Path_92" data-name="Path 92" class="cls-1" d="M248.951,312.479a1.623,1.623,0,0,1-1.565-1.82,1.643,1.643,0,0,1,1.747-1.565,1.7,1.7,0,1,1-.182,3.385Z" transform="translate(-202.358 -252.799)"/>
    <path id="Path_93" data-name="Path 93" class="cls-1" d="M185.355,320.5a1.645,1.645,0,0,1,1.711,1.62,1.684,1.684,0,0,1-3.367.036A1.617,1.617,0,0,1,185.355,320.5Z" transform="translate(-150.264 -262.131)"/>
    <path id="Path_94" data-name="Path 94" class="cls-1" d="M142.751,193.045a1.531,1.531,0,1,1-3.058-.127,1.531,1.531,0,0,1,3.058.127Z" transform="translate(-114.267 -156.607)"/>
    <path id="Path_95" data-name="Path 95" class="cls-1" d="M59.792,108.8a1.475,1.475,0,1,1,.073,2.948,1.476,1.476,0,1,1-.073-2.948Z" transform="translate(-47.689 -88.961)"/>
  </g>
</svg>
