<svg xmlns="http://www.w3.org/2000/svg" viewBox="0 0 20.919 17">
  <path id="if_03-twitter_104501" d="M24.493,12.338a8.54,8.54,0,0,1-2.465.676,4.3,4.3,0,0,0,1.887-2.375,8.591,8.591,0,0,1-2.725,1.042A4.3,4.3,0,0,0,13.877,15.6a12.186,12.186,0,0,1-8.847-4.484,4.3,4.3,0,0,0,1.328,5.73A4.28,4.28,0,0,1,4.415,16.3c0,.018,0,.036,0,.054a4.3,4.3,0,0,0,3.443,4.208,4.315,4.315,0,0,1-1.131.15,4.252,4.252,0,0,1-.808-.077,4.3,4.3,0,0,0,4.009,2.981A8.66,8.66,0,0,1,3.574,25.4a12.206,12.206,0,0,0,18.79-10.283q0-.279-.012-.556A8.692,8.692,0,0,0,24.493,12.338Z" transform="translate(-3.574 -10.326)"/>
</svg>
