<svg id="Instagram" xmlns="http://www.w3.org/2000/svg" viewBox="0 0 17.398 17.398">
  <defs>
    <style>
      .cls-1 {
        fill-rule: evenodd;
      }
    </style>
  </defs>
  <path id="Path_3" data-name="Path 3" class="cls-1" d="M8.7,1.546a26.672,26.672,0,0,1,3.48.1,4.483,4.483,0,0,1,1.643.29,3.394,3.394,0,0,1,1.643,1.643,4.483,4.483,0,0,1,.29,1.643c0,.87.1,1.16.1,3.48a26.672,26.672,0,0,1-.1,3.48,4.483,4.483,0,0,1-.29,1.643,3.394,3.394,0,0,1-1.643,1.643,4.483,4.483,0,0,1-1.643.29c-.87,0-1.16.1-3.48.1a26.672,26.672,0,0,1-3.48-.1,4.483,4.483,0,0,1-1.643-.29,3.394,3.394,0,0,1-1.643-1.643,4.483,4.483,0,0,1-.29-1.643c0-.87-.1-1.16-.1-3.48a26.672,26.672,0,0,1,.1-3.48,4.483,4.483,0,0,1,.29-1.643A3.471,3.471,0,0,1,2.61,2.61a1.634,1.634,0,0,1,.967-.677,4.483,4.483,0,0,1,1.643-.29,26.672,26.672,0,0,1,3.48-.1M8.7,0A28.559,28.559,0,0,0,5.123.1,5.967,5.967,0,0,0,3,.483,3.784,3.784,0,0,0,1.45,1.45,3.784,3.784,0,0,0,.483,3,4.4,4.4,0,0,0,.1,5.123,28.559,28.559,0,0,0,0,8.7a28.559,28.559,0,0,0,.1,3.576A5.967,5.967,0,0,0,.483,14.4a3.784,3.784,0,0,0,.967,1.546A3.784,3.784,0,0,0,3,16.914a5.967,5.967,0,0,0,2.126.387,28.559,28.559,0,0,0,3.576.1,28.559,28.559,0,0,0,3.576-.1,5.967,5.967,0,0,0,2.126-.387A4.055,4.055,0,0,0,16.914,14.4a5.967,5.967,0,0,0,.387-2.126c0-.967.1-1.257.1-3.576a28.559,28.559,0,0,0-.1-3.576A5.967,5.967,0,0,0,16.914,3a3.784,3.784,0,0,0-.967-1.546A3.784,3.784,0,0,0,14.4.483,5.967,5.967,0,0,0,12.275.1,28.559,28.559,0,0,0,8.7,0m0,4.253A4.374,4.374,0,0,0,4.253,8.7,4.446,4.446,0,1,0,8.7,4.253m0,7.346A2.848,2.848,0,0,1,5.8,8.7,2.848,2.848,0,0,1,8.7,5.8a2.848,2.848,0,0,1,2.9,2.9,2.848,2.848,0,0,1-2.9,2.9M13.338,3A1.063,1.063,0,1,0,14.4,4.059,1.073,1.073,0,0,0,13.338,3"/>
</svg>
