<svg xmlns="http://www.w3.org/2000/svg" viewBox="0 0 40.401 82.9">
  <defs>
    <style>
      .cls-1 {
        fill: #fff952;
      }
    </style>
  </defs>
  <path id="Path_96" data-name="Path 96" class="cls-1" d="M17.527,71.248c-1-.825-2.044-1.533-2.908-2.4a13.511,13.511,0,0,1-3.144-6.445Q7.938,48.553,4.342,34.681c-.334-1.258-.963-2.437-1.218-3.694a6.083,6.083,0,0,1,.924-5.05A3.69,3.69,0,0,1,5.4,24.7c1.061-.413,1.159-1.12,1.159-2.122a7.945,7.945,0,0,1,.511-2.771,1.825,1.825,0,0,0-.1-1.631C4.735,13.656,2.535,9.137.314,4.618A8.154,8.154,0,0,1,0,3.832C2.142,2.554,4.244,1.3,6.445,0,7.152,1.493,7.86,2.928,8.528,4.362c1.611,3.36,3.222,6.72,4.794,10.1a1.244,1.244,0,0,0,1.4.845c1.69-.079,3.4,0,5.089-.02a6.879,6.879,0,0,0,1.258-.157c1.454-.295,1.709-.806.786-1.945a5.171,5.171,0,0,0-1.985-1.316,15.608,15.608,0,0,0-2.378-.609,1.5,1.5,0,0,1-1.3-1.3,1.345,1.345,0,0,1,.943-1.552A24.281,24.281,0,0,1,21.5,7.368a14.628,14.628,0,0,1,8.685,1.454c4.225,2.24,5.8,6.032,5.855,10.571a3.067,3.067,0,0,0,1.277,2.81c2.3,1.729,3.046,4.3,3.085,7.113a22.285,22.285,0,0,1-1.061,6.111q-3.684,13.882-7.192,27.8a11.2,11.2,0,0,1-6.406,8.056,3.58,3.58,0,0,0-.314.255c1.375,1.179,2.751,2.319,4.107,3.478,1.788,1.533,3.6,3.046,5.384,4.6,1.041.9,1.159,1.572.609,2.554a1.251,1.251,0,0,1-1.258.727q-12.91-.029-25.839,0c-.924,0-1.258-.57-1.592-1.2a1.354,1.354,0,0,1,.432-1.749c2.358-2.024,4.735-4.048,7.093-6.052C15.425,73.016,16.505,72.113,17.527,71.248ZM36.155,34.013H7.722c.177.884.314,1.69.531,2.476,1.827,7.054,3.635,14.108,5.482,21.143a64.839,64.839,0,0,0,1.906,6.681,6.5,6.5,0,0,0,7.722,4.2c3.124-.688,4.657-2.967,5.4-5.855q2.859-10.846,5.639-21.712C35.015,38.65,35.565,36.371,36.155,34.013ZM21.732,31.34H25.76c3.674,0,7.329.02,11-.02.334,0,.924-.295.943-.491.216-2.122.138-4.2-1.356-5.934-1.061-1.238-1.434-1.2-2.947-.531a12.826,12.826,0,0,1-4.146,1.277c-4.4.275-8.822.314-13.244.452-2.378.059-4.775.059-7.152.177-2.4.138-3.478,1.611-3.222,3.969.1.924.472,1.159,1.375,1.14C11.907,31.321,16.82,31.34,21.732,31.34ZM22.5,10.06a7.7,7.7,0,0,1,.825.707A4.826,4.826,0,0,1,24.9,15.385c-.452,1.709-2.024,2.161-3.537,2.358a24.19,24.19,0,0,1-4.3.138,11.007,11.007,0,0,0-5.62.963,4.035,4.035,0,0,0-2.279,3.1c-.118.707.118.924.786.982,5.777.413,11.554.9,17.331.2A36,36,0,0,0,32.4,21.909,1.414,1.414,0,0,0,33.5,20.2c-.118-.9-.079-1.827-.216-2.731A9,9,0,0,0,22.5,10.06ZM29.317,79.3c-2.81-2.358-5.423-4.559-8.056-6.759-2.672,2.26-5.246,4.421-8.017,6.759ZM7.7,8.567c-.825-1.709-1.572-3.3-2.358-4.932-.727.432-1.356.825-2,1.218C4.146,6.484,4.893,8.037,5.7,9.648,6.366,9.294,7,8.96,7.7,8.567Zm1.1,2.338c-.727.413-1.336.747-1.985,1.12.806,1.611,1.552,3.124,2.319,4.677.707-.295,1.316-.57,2.024-.865C10.375,14.187,9.628,12.615,8.8,10.905Z"/>
</svg>
