<svg xmlns="http://www.w3.org/2000/svg" viewBox="0 0 60.291 70.388">
  <defs>
    <style>
      .cls-1 {
        fill: #fff952;
      }
    </style>
  </defs>
  <path id="Path_6" data-name="Path 6" class="cls-1" d="M60.291,28.744h0a.526.526,0,0,0-.1-.294h0L51.86,10.95V2.127A1.109,1.109,0,0,0,50.732,1H10.882A1.109,1.109,0,0,0,9.754,2.127v8.725L.147,28.351V28.4c-.049.049-.049.147-.1.2v.049A.442.442,0,0,0,0,28.891V66.143c.147,1.667,1.274,4.951,4.8,5.245H55.487c3.48-.294,4.657-3.578,4.8-5.245v-37.4Zm-9.558-15L57.4,27.763H43.968ZM12.009,3.255h37.6v6.764h-37.6Zm-.441,9.019h37.4l-7.5,15.489H3.039ZM2.255,66V30.018H41.027V69.133H4.951C2.647,68.888,2.3,66.388,2.255,66ZM55.34,69.133H43.282V30.018H58.036V66C57.987,66.437,57.644,68.888,55.34,69.133Z" transform="translate(0 -1)"/>
</svg>
