<?xml version="1.0" encoding="utf-8"?>
<!-- Generator: Adobe Illustrator 21.0.0, SVG Export Plug-In . SVG Version: 6.00 Build 0)  -->
<svg version="1.1" id="Layer_1" xmlns="http://www.w3.org/2000/svg" xmlns:xlink="http://www.w3.org/1999/xlink" x="0px" y="0px"
	 viewBox="0 0 374.7 429.1" style="enable-background:new 0 0 374.7 429.1;" xml:space="preserve">
<style type="text/css">
	.st0{enable-background:new    ;}
</style>
<g>
	<g class="st0">
		<path d="M15.2,41.6h19.1v5.8h0.2c4.3-4.3,9.8-7.5,15.9-7.5c7.3,0,15.4,2.7,19.3,10.2C75.5,43.1,82,40,88.1,40
			c10.2,0,21.6,5.1,21.6,20.5V97H90.5V65.7c0-5.5-2.9-10.4-9.7-10.4c-6,0-8.6,4.4-8.9,8.6v33H52.9V65.7c0-5.5-2.9-10.4-9.7-10.4
			c-6.4,0-8.9,4.9-8.9,9.3V97H15.2V41.6z"/>
		<path d="M142.7,18.7c0,6.3-5.1,11.3-11.3,11.3C125.1,30,120,25,120,18.7c0-6.3,5.1-11.3,11.3-11.3
			C137.6,7.4,142.7,12.4,142.7,18.7z M121.5,97h19.1V41.6h-19.1V97z"/>
		<path d="M154.2,4.1h19.1V97h-19.1V4.1z"/>
		<path d="M223.2,68.1L252.1,97h-24.6l-22.1-22.1V97h-19.1V4.1h19.1v56.8l19.3-19.3h24.8L223.2,68.1z"/>
	</g>
	<g class="st0">
		<path d="M15.2,174.7h19.1v5.8h0.2c4.3-4.3,9.8-7.5,15.9-7.5c7.3,0,15.4,2.7,19.3,10.2c5.8-7,12.3-10.2,18.4-10.2
			c10.2,0,21.6,5.1,21.6,20.5v36.5H90.5v-31.3c0-5.5-2.9-10.4-9.7-10.4c-6,0-8.6,4.4-8.9,8.6v33H52.9v-31.3c0-5.5-2.9-10.4-9.7-10.4
			c-6.4,0-8.9,4.9-8.9,9.3v32.4H15.2V174.7z"/>
		<path d="M137.4,205c0,8.5,7.1,11.4,12,11.4c6.2,0,8.9-1.2,13.5-6.2l13.8,6.9c-6.3,10.5-16.4,14.5-28.7,14.5
			c-16.7,0-30.5-13.2-30.5-29.3c0-16.2,13.7-29.4,30.5-29.4c16.8,0,29.7,9.9,29.7,29.4c0,0.8,0,1.9-0.1,2.6H137.4z M159,194.4
			c-0.9-5.8-4.9-9-10.5-9c-6.6,0-10.3,3.9-10.6,9H159z"/>
		<path d="M210.2,173c7.5,0,13.6,2.5,18.1,6.9v-42.8h19.1v92.9h-18.9v-6.3h-0.2c-4.1,4.5-10.6,7.9-18.1,7.9
			c-16.2,0-27.5-13.1-27.5-29.3C182.7,186.2,194,173,210.2,173z M215.9,215.4c7.5,0,12.9-5.4,12.9-13c0-7.7-5.7-13.1-12.9-13.1
			c-7.2,0-13,5.4-13,13.1C203,210,208.2,215.4,215.9,215.4z"/>
		<path d="M281.6,151.8c0,6.3-5.1,11.3-11.3,11.3c-6.3,0-11.3-5.1-11.3-11.3c0-6.3,5.1-11.3,11.3-11.3
			C276.5,140.4,281.6,145.5,281.6,151.8z M260.4,230.1h19.1v-55.4h-19.1V230.1z"/>
		<path d="M316.6,173c7.5,0,13.6,2.5,18.1,6.9v-5.3h19.1v55.4h-18.9v-6.3h-0.2c-4.1,4.5-10.6,7.9-18.1,7.9
			c-16.2,0-27.5-13.1-27.5-29.3C289,186.2,300.4,173,316.6,173z M322.3,215.4c7.5,0,12.9-5.4,12.9-13c0-7.7-5.7-13.1-12.9-13.1
			c-7.2,0-13,5.4-13,13.1C309.4,210,314.5,215.4,322.3,215.4z"/>
	</g>
	<g class="st0">
		<path d="M29.6,375.6c2.2,3.6,7.1,7.6,16,7.6c5.6,0,14.4-3.3,14.4-13.8V365c-4.4,4.8-11.3,6-19.3,6c-17.3,0-29.3-13.9-29.3-31.2
			s12.1-31.3,29.3-31.3c7.8,0,14.1,2.5,19,7H60v-5.3h20.4v60.6c0,19.8-14.6,30-34.7,30c-12.3,0-26.5-2.8-32.7-17.1L29.6,375.6z
			 M46.8,353.6c7.9,0,13.7-5.8,13.7-13.8c0-8.2-6.1-13.9-13.7-13.9c-7.7,0-13.8,5.8-13.8,13.9C32.9,347.9,38.5,353.6,46.8,353.6z"/>
		<path d="M94.1,310.3h20.4v8.5h0.2c0,0,6.4-10.2,18.1-10.2c7.6,0,12.9,3.7,12.9,3.7l-8.5,17.3c0,0-3.8-3.2-10.6-3.2
			c-10.6,0-12.1,10.5-12.1,12v31.1H94.1V310.3z"/>
		<path d="M182,308.5c19.6,0,35.2,12.9,35.2,31.3c0,18.2-14.8,31.2-35.2,31.2c-21.3,0-35.5-13-35.5-31.2
			C146.5,321.4,162.1,308.5,182,308.5z M181.9,353.6c7.9,0,13.7-5.8,13.7-13.8c0-8.2-6.1-13.9-13.7-13.9c-7.7,0-13.8,5.8-13.8,13.9
			C168.1,347.9,173.6,353.6,181.9,353.6z"/>
		<path d="M245.9,338.3c0,11.6,3.1,16.1,11.6,16.1c8.5,0,11.6-4.5,11.6-16.1v-28.1h20.4v33c0,19.8-9.9,27.7-32,27.7s-32-7.9-32-27.7
			v-33h20.4V338.3z"/>
		<path d="M341.8,371c-7.9,0-14.5-2.6-19.3-7.4v35.5h-20.4v-88.9h20.1v6.7h0.2c4.4-4.8,11.3-8.4,19.3-8.4
			c17.3,0,29.3,13.9,29.3,31.2S359.1,371,341.8,371z M335.7,325.9c-7.9,0-13.7,5.8-13.7,13.8c0,8.2,6.1,13.9,13.7,13.9
			c7.7,0,13.8-5.8,13.8-13.9C349.5,331.7,344,325.9,335.7,325.9z"/>
	</g>
</g>
</svg>
