<svg xmlns="http://www.w3.org/2000/svg" viewBox="0 0 63.682 55.203">
  <g id="Group_10" data-name="Group 10" transform="translate(-0.021 -0.002)">
    <path id="Path_69" data-name="Path 69" d="M16.382,87.513c-.053,1.067-.105,2.055-.145,3.082H3.448c-.263,1.752-.066,3.266,1.462,4.373,2.792,2.015,5.558,4.07,8.35,6.1q9.147,6.678,18.281,13.355a.779.779,0,0,0,1.12.013q12.96-9.483,25.947-18.94l.79-.593a3.4,3.4,0,0,0,1.462-3.069c-.026-.369,0-.738,0-1.2H47.4c.2-1.08.382-2.068.593-3.135H60.544a3.168,3.168,0,0,1,3.438,3.451V127.83a3.173,3.173,0,0,1-3.332,3.359H3.7a3.165,3.165,0,0,1-3.4-3.411V91.03a3.188,3.188,0,0,1,3.5-3.517H16.382Zm-10.813,40.5H58.634c-.184-.158-.277-.25-.382-.329q-9.641-6.717-19.269-13.448a.672.672,0,0,0-.922.04c-1.581,1.172-3.187,2.331-4.781,3.49a1.607,1.607,0,0,1-2.318.013c-1.528-1.106-3.069-2.2-4.57-3.345a1,1,0,0,0-1.409-.04q-9.4,6.6-18.835,13.145A7.117,7.117,0,0,1,5.568,128.014ZM60.808,97.747c-6.6,4.794-13.079,9.509-19.638,14.277,6.586,4.6,13.066,9.114,19.638,13.7ZM3.4,125.735c6.6-4.61,13.092-9.128,19.638-13.7C16.448,107.243,9.954,102.528,3.4,97.76,3.4,107.112,3.4,116.345,3.4,125.735Z" transform="translate(-0.279 -75.983)"/>
    <path id="Path_70" data-name="Path 70" d="M146.02,14.024a11.234,11.234,0,0,0,.751,4.32c1.185,3,3.556,4.439,6.638,4.873a19.646,19.646,0,0,0,7.481-.606c.171-.04.342-.092.514-.132.8-.2,1.488.066,1.62.711.2.935.145,1.673-.817,1.936a29.166,29.166,0,0,1-4.083.961,17.562,17.562,0,0,1-7.666-.58,10.239,10.239,0,0,1-7.547-8.864,14.385,14.385,0,0,1,3.029-11.854A12.893,12.893,0,0,1,153.988.326a14.392,14.392,0,0,1,7.889.685,10.356,10.356,0,0,1,6.73,8.271,12.128,12.128,0,0,1-.645,6.967,5.365,5.365,0,0,1-4,3.635,3.688,3.688,0,0,1-4.188-1.62c-.3-.5-.579-.316-.882,0a5.729,5.729,0,0,1-5.993,1.475,5.023,5.023,0,0,1-3.885-4.188,7.8,7.8,0,0,1,1.106-6.3,6.978,6.978,0,0,1,4.834-2.871,16.478,16.478,0,0,1,6.059.421,1.309,1.309,0,0,1,1.146,1.515c-.105,2.147-.25,4.294-.329,6.427A4.7,4.7,0,0,0,162,16.237a1.24,1.24,0,0,0,2.226.553,2.848,2.848,0,0,0,.659-1.054,10.769,10.769,0,0,0-.54-8.785,7.575,7.575,0,0,0-6.125-3.925,11.508,11.508,0,0,0-7.02,1.212,9.779,9.779,0,0,0-4.952,7.573C146.112,12.536,146.086,13.273,146.02,14.024Zm12.657-3.767c-.092-1.133-.092-1.133-1.251-1.264a1.818,1.818,0,0,0-.263-.04c-1.857-.066-3.556.461-4.386,2.331a5.75,5.75,0,0,0-.29,3.978,2.425,2.425,0,0,0,2,1.923,2.789,2.789,0,0,0,3.517-2.134C158.361,13.484,158.466,11.851,158.677,10.257Z" transform="translate(-123.924 -0.07)"/>
  </g>
</svg>
