<?xml version="1.0" encoding="utf-8"?>
<!-- Generator: Adobe Illustrator 21.0.0, SVG Export Plug-In . SVG Version: 6.00 Build 0)  -->
<svg version="1.1" id="Layer_1" xmlns="http://www.w3.org/2000/svg" xmlns:xlink="http://www.w3.org/1999/xlink" x="0px" y="0px"
	 viewBox="0 0 365.5 429.1" style="enable-background:new 0 0 365.5 429.1;" xml:space="preserve">
<style type="text/css">
	.st0{fill:#231F20;}
</style>
<path id="Path_1" class="st0" d="M365.5,170.6L365.5,170.6c0-0.6-0.2-1.3-0.6-1.8l0,0L314.4,62.7V9.2c0.1-3.7-2.9-6.8-6.6-6.8
	c-0.1,0-0.1,0-0.2,0H66c-3.7-0.1-6.8,2.9-6.8,6.6c0,0.1,0,0.1,0,0.2v52.9L0.9,168.2v0.3c-0.3,0.3-0.3,0.9-0.6,1.2v0.3
	c-0.2,0.5-0.3,1-0.3,1.5v225.9c0.9,10.1,7.7,30,29.1,31.8h307.3c21.1-1.8,28.2-21.7,29.1-31.8L365.5,170.6L365.5,170.6z M307.6,79.7
	l40.4,85h-81.4L307.6,79.7z M72.8,16.1h227.9v41H72.8V16.1z M70.1,70.7h226.7l-45.5,93.9h-233L70.1,70.7z M13.7,396.4V178.3h235.1
	v237.1H30C16,414,14,398.8,13.7,396.4z M335.5,415.5h-73.1V178.3h89.5v218.1C351.6,399.1,349.5,414,335.5,415.5L335.5,415.5z"/>
</svg>
