<?xml version="1.0" encoding="utf-8"?>
<!-- Generator: Adobe Illustrator 21.0.0, SVG Export Plug-In . SVG Version: 6.00 Build 0)  -->
<svg version="1.1" id="Layer_1" xmlns="http://www.w3.org/2000/svg" xmlns:xlink="http://www.w3.org/1999/xlink" x="0px" y="0px"
	 viewBox="0 0 32 32" style="enable-background:new 0 0 32 32;" xml:space="preserve">
<style type="text/css">
	.st0{fill:#231F20;}
</style>
<path id="Path_1" class="st0" d="M29.6,12.5L29.6,12.5c0,0,0-0.1,0-0.1l0,0l-3.7-7.9v-4c0-0.3-0.2-0.5-0.5-0.5c0,0,0,0,0,0H7.3
	C7.1,0,6.8,0.2,6.8,0.5c0,0,0,0,0,0v3.9l-4.3,7.9v0c0,0,0,0.1,0,0.1v0c0,0,0,0.1,0,0.1v16.8c0.1,0.7,0.6,2.2,2.2,2.4h22.8
	c1.6-0.1,2.1-1.6,2.2-2.4V12.5L29.6,12.5z M25.3,5.8l3,6.3h-6L25.3,5.8z M7.8,1h16.9v3H7.8V1z M7.6,5.1h16.8l-3.4,7H3.8L7.6,5.1z
	 M3.5,29.3V13.1h17.4v17.6H4.7C3.6,30.6,3.5,29.4,3.5,29.3z M27.3,30.7h-5.4V13.1h6.6v16.2C28.5,29.5,28.4,30.6,27.3,30.7L27.3,30.7
	z"/>
</svg>
